<?xml version="1.0" encoding="UTF-8"?>
<svg xmlns="http://www.w3.org/2000/svg" xmlns:xlink="http://www.w3.org/1999/xlink" width="20px" height="20px" viewBox="0 0 20 20" version="1.1">
<g id="surface1">
<path style=" stroke:none;fill-rule:nonzero;fill:rgb(0%,0%,0%);fill-opacity:1;" d="M 0 10.003906 C 0 10.382812 0.308594 10.691406 0.6875 10.691406 L 13.816406 10.691406 L 11.257812 13.246094 C 10.988281 13.515625 10.988281 13.953125 11.257812 14.222656 C 11.386719 14.355469 11.566406 14.421875 11.742188 14.421875 C 11.917969 14.421875 12.09375 14.355469 12.226562 14.222656 L 15.957031 10.492188 C 16.226562 10.222656 16.226562 9.785156 15.957031 9.515625 L 12.226562 5.785156 C 11.957031 5.519531 11.519531 5.519531 11.253906 5.785156 C 10.984375 6.054688 10.984375 6.492188 11.253906 6.761719 L 13.808594 9.316406 L 0.6875 9.316406 C 0.308594 9.316406 0 9.621094 0 10.003906 Z M 0 10.003906 "/>
<path style=" stroke:none;fill-rule:nonzero;fill:rgb(0%,0%,0%);fill-opacity:1;" d="M 15.882812 19.804688 C 18.15625 19.804688 20 17.957031 20 15.683594 L 20 4.316406 C 20 2.042969 18.152344 0.195312 15.882812 0.195312 L 4.515625 0.195312 C 2.242188 0.195312 0.402344 2.042969 0.402344 4.316406 L 0.402344 6.652344 C 0.402344 7.03125 0.710938 7.335938 1.085938 7.335938 C 1.464844 7.335938 1.773438 7.027344 1.773438 6.652344 L 1.773438 4.316406 C 1.773438 2.804688 3.003906 1.570312 4.515625 1.570312 L 15.882812 1.570312 C 17.394531 1.570312 18.625 2.800781 18.625 4.316406 L 18.625 15.683594 C 18.625 17.195312 17.394531 18.429688 15.882812 18.429688 L 4.515625 18.429688 C 3.003906 18.429688 1.773438 17.199219 1.773438 15.683594 L 1.773438 13.375 C 1.773438 12.996094 1.464844 12.6875 1.085938 12.6875 C 0.707031 12.6875 0.402344 12.996094 0.402344 13.375 L 0.402344 15.683594 C 0.402344 17.957031 2.246094 19.804688 4.515625 19.804688 Z M 15.882812 19.804688 "/>
</g>
</svg>
