<?xml version="1.0" encoding="UTF-8"?>
<svg xmlns="http://www.w3.org/2000/svg" xmlns:xlink="http://www.w3.org/1999/xlink" width="36px" height="36px" viewBox="0 0 36 36" version="1.1">
<g id="surface1">
<path style=" stroke:none;fill-rule:nonzero;fill:rgb(0%,0%,0%);fill-opacity:1;" d="M 25.417969 18.808594 C 27.539062 16.820312 28.875 14.003906 28.875 10.875 C 28.875 4.878906 23.996094 0 18 0 C 12.003906 0 7.125 4.878906 7.125 10.875 C 7.125 14.003906 8.460938 16.820312 10.582031 18.808594 C 7.308594 21.625 2.863281 25.488281 2.863281 34.40625 L 2.863281 36 L 33.136719 36 L 33.136719 34.40625 C 33.136719 25.488281 28.691406 21.625 25.417969 18.808594 Z M 10.3125 10.875 C 10.3125 6.636719 13.761719 3.1875 18 3.1875 C 22.238281 3.1875 25.691406 6.636719 25.691406 10.875 C 25.691406 15.117188 22.242188 18.566406 18 18.566406 C 13.761719 18.566406 10.3125 15.117188 10.3125 10.875 Z M 6.105469 32.8125 C 6.570312 26.460938 9.816406 23.667969 12.703125 21.183594 C 12.789062 21.113281 12.871094 21.039062 12.957031 20.96875 C 14.539062 21.648438 16.261719 22.011719 18.011719 22.023438 C 19.742188 22.011719 21.460938 21.648438 23.046875 20.96875 C 23.128906 21.039062 23.210938 21.113281 23.296875 21.183594 C 26.183594 23.667969 29.429688 26.460938 29.894531 32.8125 Z M 6.105469 32.8125 "/>
</g>
</svg>
